inDegrees=no
num_controls=7
num_derivatives=13
num_iterations=111
num_multipliers=7
num_parameters=0
num_slacks=7
num_states=26
objective=5.198316
objective_accelerations=0.635655
objective_balance=0.023955
objective_effort=0.164085
objective_height=4.254638
objective_ligament=0.119983
solver_duration=1323.214154
status=Solve_Succeeded
success=true
DataType=double
version=3
OpenSimVersion=4.4-2022-07-23-0e9fedc
endheader
time	/jointset/ground_pelvis/pelvis_tilt/value	/jointset/ground_pelvis/pelvis_tx/value	/jointset/ground_pelvis/pelvis_ty/value	/jointset/hip_l/hip_flexion_l/value	/jointset/hip_l/hip_adduction_l/value	/jointset/hip_l/hip_rotation_l/value	/jointset/back/lumbar_extension/value	/jointset/patellofemoral_l/patellar_flexion_l/value	/jointset/knee_l/knee_flexion_l/value	/jointset/knee_l/knee_adduction_l/value	/jointset/knee_l/knee_rotation_l/value	/jointset/ankle_l/ankle_angle_l/value	/jointset/subtalar_l/subtalar_angle_l/value	/jointset/ground_pelvis/pelvis_tilt/speed	/jointset/ground_pelvis/pelvis_tx/speed	/jointset/ground_pelvis/pelvis_ty/speed	/jointset/hip_l/hip_flexion_l/speed	/jointset/hip_l/hip_adduction_l/speed	/jointset/hip_l/hip_rotation_l/speed	/jointset/back/lumbar_extension/speed	/jointset/patellofemoral_l/patellar_flexion_l/speed	/jointset/knee_l/knee_flexion_l/speed	/jointset/knee_l/knee_adduction_l/speed	/jointset/knee_l/knee_rotation_l/speed	/jointset/ankle_l/ankle_angle_l/speed	/jointset/subtalar_l/subtalar_angle_l/speed	/forceset/tau_hip_flexion_l	/forceset/tau_hip_adduction_l	/forceset/tau_hip_rotation_l	/forceset/tau_knee_flexion_l	/forceset/tau_ankle_angle_l	/forceset/tau_subtalar_angle_l	/forceset/tau_lumbar_extension	lambda_cid13_p0	lambda_cid13_p1	lambda_cid13_p2	lambda_cid13_p3	lambda_cid13_p4	lambda_cid13_p5	lambda_cid14_p0	/jointset/ground_pelvis/pelvis_tilt/accel	/jointset/ground_pelvis/pelvis_tx/accel	/jointset/ground_pelvis/pelvis_ty/accel	/jointset/hip_l/hip_flexion_l/accel	/jointset/hip_l/hip_adduction_l/accel	/jointset/hip_l/hip_rotation_l/accel	/jointset/back/lumbar_extension/accel	/jointset/patellofemoral_l/patellar_flexion_l/accel	/jointset/knee_l/knee_flexion_l/accel	/jointset/knee_l/knee_adduction_l/accel	/jointset/knee_l/knee_rotation_l/accel	/jointset/ankle_l/ankle_angle_l/accel	/jointset/subtalar_l/subtalar_angle_l/accel	gamma_cid13_p0	gamma_cid13_p1	gamma_cid13_p2	gamma_cid13_p3	gamma_cid13_p4	gamma_cid13_p5	gamma_cid14_p0
0	0.04658055245025864	0.1086394221774861	0.9029864378539063	0.1266917050730164	-0.3690420553420737	-0.2378781806875431	-0.2144974744115991	0.2051547269256873	0.2051547269256735	-0.1716786016077024	-0.1719310326314662	0.09024399430361882	0.08026759350184567	0	0	0	0	0	0	0	0	0	0	0	0	0	0.1232450812291494	-0.09622572361264288	-0.01467367506548854	-0.2706252055598434	0.2135475985734401	-0.06371251829515785	-0.05234294314006627	39.21016307970335	21.89414781141349	-5.015683532179033	-31.09690373441456	-441.3469367399763	-76.4637571763958	-26.63680389329771	-3.239551544714318	-0.7358984533164972	-0.7834446787533341	10.53918946397855	0.008355092492842595	3.270304391156701	-3.462434655323995	9.926097411212901	9.926097411210504	2.570604036460488	-0.4998374356335444	3.705594531478958	1.085308585819165	2.018003341956001e-08	6.39156821598691e-07	-1.795718538378336e-07	5.290187479643472e-08	1.834504576781383e-08	3.278040447378589e-07	9.410322953976631e-08
0.01	0.04642560478294832	0.1086030725429279	0.9029484178457795	0.1272041243471198	-0.3690406697687527	-0.2377067193231781	-0.214674343044503	0.2056387671836099	0.2056387671838173	-0.1715518970814707	-0.1719435153279772	0.0904254652934859	0.08032166172941213	-0.03087902806949659	-0.007249606465306647	-0.007584489260342137	0.1020633415169664	0.0002595568076581762	0.03417368271816798	-0.03512982354691161	0.09636103130597992	0.0963610313059638	0.02517383515160012	-0.002442359536252488	0.0361012292002062	0.01074008196902565	0.1201662143156211	-0.1037572356390966	-0.01384584520259649	-0.2662817697991792	0.2047376273480268	-0.05438559362634764	-0.04997094807122177	36.88634782833477	17.96787271858583	-4.067072553804748	-29.70924769919323	-441.9325252802653	-84.26821491524683	-26.63600880453285	-2.995500536433816	-0.716433097455331	-0.7430205258457094	9.976830964866169	0.03205597630703422	3.473157072372927	-3.501670748404787	9.424034125567943	9.424034125567587	2.465798779696471	-0.1083518943247508	3.533460990948982	1.057244074789116	2.096077591514888e-08	9.144986738351571e-07	-1.853508964118831e-07	8.569035513057321e-08	-1.406812307214242e-07	3.796502133985722e-07	1.361649045597341e-07
0.02	0.04596518241525319	0.1084948385728519	0.9028351390498148	0.128724561930181	-0.3690372286270414	-0.2371970697594706	-0.2151951928216835	0.2070730033818184	0.2070730033818233	-0.1711784490982412	-0.1719788049559092	0.09096216335071318	0.08048090799113931	-0.06109494007347235	-0.01437686710355501	-0.01505175756763749	0.2016036618064207	0.0004111136715775343	0.06763763984538328	-0.06879622885495064	0.1900391880230409	0.1900391880230347	0.04934869131061073	-0.004561386340655747	0.07104541346669545	0.0210356068318189	0.1170873474009194	-0.1112887476659033	-0.01301801534111473	-0.2619383340392759	0.1959276561221533	-0.04505866895803928	-0.04759895300281398	34.6085399641814	14.04786506395814	-3.135823151682384	-28.3800618598604	-441.7047679615758	-91.88566275342457	-26.63339948746309	-3.106928331609548	-0.711429287905426	-0.7600004881439533	10.03458521847626	-0.01324489625497215	3.128359272966111	-3.169751007549171	9.389522493429206	9.38952249343202	2.370808237942544	-0.4351708892638219	3.474185544734876	0.9963971645724495	2.174151841073776e-08	1.189840526071623e-06	-1.911299389859326e-07	1.184788354647117e-07	-2.997075072106622e-07	4.314963820592855e-07	1.782265795797019e-07
0.03	0.04520575757842962	0.1083157101693572	0.902647539530005	0.1312284621761474	-0.3690327149301281	-0.2363584229401804	-0.2160449685954552	0.2094312261763695	0.2094312261763045	-0.1705680540403339	-0.1720356016238209	0.09184233441515975	0.08074100202218328	-0.09065691888532093	-0.02145058975012695	-0.02246536562310873	0.2987561269302796	0.0004844193967579986	0.09995334539085506	-0.1009131907285315	0.2811519899053256	0.2811519899053301	0.07255770538282737	-0.006734537291587615	0.1047630896366123	0.03091468220174226	0.112811108955201	-0.1057125869048469	-0.01191771500499228	-0.2560093354861655	0.1878166281672101	-0.04660803991961054	-0.04447929203664341	31.90021046531705	14.99561374315739	-3.059211476178717	-26.32893027932953	-441.6388374661867	-89.00466026706778	-26.62872131258431	-2.860854763375906	-0.7055863495537399	-0.7316844325369113	9.492543728319603	0.01638985657680292	3.262482186035188	-3.1958085007766	8.904116074429007	8.904116074428716	2.270234968994641	-0.09893341184657881	3.286742107258206	0.9732195516621717	2.013151772231598e-08	1.284344755844627e-06	-1.857994496658612e-07	1.333315283172713e-07	-4.134724084877018e-07	4.346715098797174e-07	1.949985167546835e-07
0.04	0.04415470853198243	0.1080657960200907	0.9023858752359828	0.1346912803871451	-0.369027713866053	-0.2352007578673128	-0.2172085419326675	0.2126869683974312	0.2126869683974366	-0.1697307114463746	-0.1721122390441301	0.09305291893212747	0.0810977981726197	-0.1194197819932438	-0.02853401625789505	-0.02986471241016698	0.3933872548132648	0.0005085871088080906	0.1314412905642287	-0.1315557415426037	0.3695430733396476	0.3695430733396481	0.094738198540365	-0.00852953679605996	0.1371281039720468	0.04037603071004998	0.108534870509774	-0.1001364261437191	-0.01081741466822759	-0.2500803369329367	0.1797056002123638	-0.04815741088108409	-0.04135963107033031	29.23357951630528	15.95187680134752	-3.002023934851504	-24.32704963547763	-440.8241070586277	-85.94344368323435	-26.62133887398318	-2.94710519082382	-0.7133700601452141	-0.7571482344613331	9.530317770301634	-0.02307249888107976	2.962807198546447	-2.874868795647113	8.84517880383677	8.845178803836612	2.165104055006696	-0.3595405999720258	3.203653177837742	0.9128517922490889	1.847222335999707e-08	1.375120374845188e-06	-1.80239897832509e-07	1.478144111186644e-07	-5.263040855335621e-07	4.368431110848859e-07	2.112490160359539e-07
0.05	0.04281953326517185	0.1077450248729061	0.9020500530939053	0.1390886386306427	-0.3690227604070208	-0.2337342875567235	-0.2186707910671048	0.2168138814288972	0.2168138814289286	-0.1686766993595515	-0.1722069204655753	0.09458061417053125	0.08154719359165273	-0.1474826890345271	-0.03561767034507939	-0.03731221604714646	0.4856648390494065	0.000481635739386766	0.1617110907372096	-0.1606615292877251	0.4553934099185815	0.4553934099185873	0.1158876577866623	-0.0103292437571047	0.1681925913164684	0.04944668399114003	0.1041021386193527	-0.09743421280336668	-0.009590946587196275	-0.2445851959222907	0.1711531656212775	-0.04679486072934393	-0.03816634635592932	26.58533844780522	15.62808201551689	-2.726834218319376	-22.45534334432146	-440.2248043521816	-85.55457096516062	-26.61056816565136	-2.715978204796122	-0.7054519794696282	-0.7405326071215627	9.013553904798053	0.007247726291888858	3.03788108836191	-2.893550354548441	8.388000247965071	8.388000247965879	2.063594761820456	-0.07861937065354203	3.025141473677885	0.895520986214113	1.757452346278671e-08	1.356789332927453e-06	-1.974899682158221e-07	1.509237567141166e-07	-5.848684817501297e-07	4.437977373650761e-07	2.13833331241205e-07
0.06	0.0412077099791215	0.1073534994055551	0.901639359679697	0.1443961877473888	-0.3690181256252433	-0.2319693563120613	-0.2204171213971165	0.2217859056588168	0.2217859056588246	-0.1674164470997638	-0.1723172856818412	0.09641241327456497	0.08208556532153263	-0.1747493858363648	-0.04268488029118018	-0.04483896683634468	0.5754254294666347	0.0004448516605425111	0.1911334773777229	-0.1883719806569304	0.53856531301925	0.538565313019262	0.1359862331281078	-0.01166629577746308	0.1979488770982225	0.05817129287922321	0.09966940672896057	-0.09473199946302034	-0.008364478506606004	-0.2390900549115496	0.1626007310302084	-0.04543231057760019	-0.0349730616415121	23.97502536973266	15.30992771475005	-2.466573209268707	-20.6257579077536	-438.9531546441818	-85.00588662154107	-26.59540745894478	-2.787863142934152	-0.7100812319290328	-0.7729976649050594	9.026919006519046	-0.02503904076571677	2.793324492052897	-2.595801520463596	8.309492108183743	8.309492108183841	1.95492727403629	-0.2670096118348589	2.942012865303608	0.8436429136474874	1.670889070094935e-08	1.333864326339474e-06	-2.157004437451001e-07	1.535542165324765e-07	-6.411479398265166e-07	4.509537541747409e-07	2.15842228169571e-07
0.07000000000000001	0.03932661321614146	0.1068914475183319	0.9011527999511133	0.1505897139714027	-0.3690139074450653	-0.2299164257493769	-0.2224331041184991	0.2275772209008645	0.2275772209009105	-0.1659602819176104	-0.1724408114729	0.0985355560616152	0.08270959920195768	-0.2013430226518494	-0.04971429271925479	-0.05249734617514687	0.6628569840537432	0.000402393331408623	0.219293640360701	-0.214599096731806	0.6192539034865033	0.6192539034865132	0.1550661277929584	-0.01296559009388573	0.2264701558772362	0.06658844769368157	0.0952260536561664	-0.09129321459214779	-0.007127156875539931	-0.234271944260133	0.1550238685484374	-0.04461054094806224	-0.03178610473768021	21.6339667801486	15.22046042778064	-2.289568452563569	-19.03334057633247	-437.9563789661632	-83.98182091616169	-26.57484387466362	-2.576050687912167	-0.6976598417662568	-0.7660420742901554	8.537859478748912	0.006533606240832589	2.803584357565057	-2.60234661704279	7.881924537457679	7.881924537457336	1.857618769516773	-0.05046135955074097	2.775803377715662	0.8335124777812514	1.467292270896431e-08	1.169579130737757e-06	-2.333552896165626e-07	1.420647681011801e-07	-6.56613309614006e-07	4.274843960486284e-07	1.990372109828487e-07
0.08	0.03718339273757399	0.1063594437881227	0.9005888996279569	0.1576448729000458	-0.3690100372811363	-0.2275866491256062	-0.2247045939938415	0.2341620984519033	0.2341620984519097	-0.1643186981473516	-0.1725751446106926	0.1009376352351635	0.08341635677301527	-0.2271741289495009	-0.05667524888838791	-0.0603070857508654	0.747751970398548	0.0003752484114117872	0.2465026895894779	-0.2394734114483475	0.697277774812215	0.697277774812223	0.1730699507300745	-0.01382776513049478	0.253736154396857	0.07471603100557471	0.0907827005831157	-0.08785442972136355	-0.005889835244629479	-0.2294538336089063	0.1474470060665642	-0.04378877131864865	-0.02859914783393943	19.32645748213233	15.13678459047211	-2.126812740628369	-17.47201812296247	-436.3594477620115	-82.81085269842612	-26.5476430058236	-2.635357039367009	-0.6963899801412292	-0.8032697122883106	8.519605358058412	-0.02197635893836831	2.603101741212652	-2.325241248796491	7.776548279875461	7.776548279875597	1.739712928489341	-0.179585755872236	2.690956813424446	0.7857286131342156	1.256144921826007e-08	9.961739229416048e-07	-2.509742884133274e-07	1.296643578473252e-07	-6.694455124151149e-07	4.02039207281498e-07	1.810183928854756e-07
0.09	0.03478512149482511	0.1057581933290228	0.8999459735215071	0.1655373153903433	-0.3690063847361762	-0.2249914010791954	-0.2272175972942837	0.2415149057222237	0.241514905722238	-0.1625022337946447	-0.1727179846038129	0.10360639771654	0.08420305131353789	-0.2523543897811306	-0.06355919791968986	-0.0683111955797967	0.8303164321588746	0.0003638706349439965	0.2723882482509661	-0.2629108276612885	0.7728475910609338	0.7728475910609581	0.1900459328312288	-0.01466137019315948	0.2798146897076779	0.08258528606782939	0.08624062674434244	-0.08455553357507734	-0.004632068994482976	-0.2250507673474673	0.1401888170496625	-0.04260299475235747	-0.02535841718817842	17.12800741475485	14.89173327572186	-1.956385704667017	-16.03859895027635	-435.0635881329727	-81.97177182437017	-26.51260941098806	-2.440478362916214	-0.6820248816655484	-0.8040747207514548	8.061863888913818	0.01047753571401674	2.5575483058555	-2.320528660004536	7.381749156214767	7.381749156217084	1.650128568507884	-0.02347846795004113	2.536088718260734	0.7817608975781014	1.129637694333319e-08	7.360035909121261e-07	-2.79841817712552e-07	1.072043117206795e-07	-6.484910834596694e-07	3.666571567486289e-07	1.527547888663195e-07
